<?xml version="1.0" encoding="utf-8"?>
<!-- Generator: Adobe Illustrator 19.0.0, SVG Export Plug-In . SVG Version: 6.00 Build 0)  -->
<svg version="1.1" id="Capa_1" xmlns="http://www.w3.org/2000/svg" xmlns:xlink="http://www.w3.org/1999/xlink" x="0px" y="0px"
	 viewBox="-468 272 70 70" style="enable-background:new -468 272 70 70;" xml:space="preserve">
<style type="text/css">
	.st0{fill:#E6007E;}
	.st1{fill:#FFFFFF;}
</style>
<circle class="st0" cx="-433" cy="307" r="33.7"/>
<path class="st1" d="M-433,290.7c-0.8-0.5-1.7-0.8-2.7-0.8s-2.1,0.5-3.2,1.6l-2.7,2.7c-2.9,2.8-5.8,5.7-8.5,8.6l-4.1,4.3l4.1,4.3
	c2.7,2.9,5.6,5.7,8.5,8.6l2.9,2.8c1,1,1.9,1.4,2.9,1.4h0.3c0.7,0,1.3-0.1,1.7-0.3c0.4-0.2,0.9-0.4,1.3-0.8c0.5-0.4,0.9-0.8,1.3-1.3
	c0.4-0.4,0.6-0.9,0.8-1.3s0.3-1,0.3-1.6s-0.1-1.2-0.3-1.6c-0.2-0.5-0.5-0.9-0.9-1.4c-0.4-0.5-1-1.1-1.7-1.8l-1.7-1.7h17.5
	c1.1,0,1.9-0.2,2.5-0.5c0.6-0.4,1.1-0.7,1.4-1.1c0.3-0.4,0.7-0.8,1.1-1.4c0.4-0.6,0.5-1.4,0.5-2.2c0-0.9-0.2-1.6-0.5-2.2
	c-0.4-0.6-0.7-1.1-1.1-1.4c-0.4-0.3-0.8-0.7-1.4-1.1c-0.6-0.4-1.5-0.5-2.5-0.5h-17.3l2.8-3.1c1-1.1,1.5-2.2,1.5-3.3
	c0-1-0.3-1.9-0.8-2.7C-431.5,291.9-432.2,291.2-433,290.7"/>
</svg>
