<?xml version="1.0" encoding="utf-8"?>
<!-- Generator: Adobe Illustrator 19.0.0, SVG Export Plug-In . SVG Version: 6.00 Build 0)  -->
<svg version="1.1" id="Capa_1" xmlns="http://www.w3.org/2000/svg" xmlns:xlink="http://www.w3.org/1999/xlink" x="0px" y="0px"
	 viewBox="-280 372 50 50" style="enable-background:new -280 372 50 50;" xml:space="preserve">
<style type="text/css">
	.st0{fill:#6F6E6E;}
	.st1{fill:#FFFFFF;}
</style>
<g id="XMLID_26_">
	<g id="XMLID_27_">
		<path id="XMLID_44_" class="st0" d="M-261.6,372.1c1.1,0.9,2.1,1.9,2.8,3c1.9,3.3,2.6,6.7,1.5,10.5c-0.4,1.2-0.6,2.5-0.7,3.8
			c-0.3,2.3,1.6,4.5,4,4.8c3.4,0.5,5.7-2.6,5.4-5.1c-0.3-2.5-1-4.8-2.3-6.9c-0.1-0.2-0.3-0.4-0.3-0.7c0.1,0.1,0.3,0.2,0.4,0.3
			c6.1,5.4,10,12.1,11.2,20.2c0.5,3.3,0.5,6.6-0.8,9.8c-2.1,5-5.7,8.3-11,9.6c-9.2,2.3-18.1-3.9-19.4-13.2
			c-0.5-3.9,0.2-7.6,1.9-11.1c1.6-3.1,3.3-6.2,4.9-9.3c1.1-2.1,2-4.2,2.6-6.4c0.7-2.8,0.6-5.6,0.1-8.4
			C-261.5,372.7-261.5,372.5-261.6,372.1z"/>
	</g>
	<g id="XMLID_28_">
		<path id="XMLID_29_" class="st1" d="M-259.7,394.1c0.6,0.5,1,0.9,1.4,1.5c1,1.6,1.3,3.3,0.7,5.2c-0.2,0.6-0.3,1.2-0.4,1.9
			c-0.1,1.2,0.8,2.2,2,2.4c1.7,0.3,2.8-1.3,2.7-2.5c-0.1-1.2-0.5-2.4-1.2-3.4c-0.1-0.1-0.1-0.2-0.2-0.4c0.1,0,0.1,0.1,0.2,0.1
			c3,2.7,4.9,6,5.6,10c0.3,1.6,0.2,3.3-0.4,4.9c-1,2.5-2.8,4.1-5.5,4.8c-4.6,1.1-9-1.9-9.6-6.5c-0.3-1.9,0.1-3.8,1-5.5
			c0.8-1.6,1.6-3.1,2.4-4.6c0.5-1,1-2.1,1.3-3.2c0.3-1.4,0.3-2.8,0-4.2C-259.7,394.4-259.7,394.3-259.7,394.1z"/>
	</g>
</g>
</svg>
