<?xml version="1.0" encoding="utf-8"?>
<!-- Generator: Adobe Illustrator 19.0.0, SVG Export Plug-In . SVG Version: 6.00 Build 0)  -->
<svg version="1.1" id="Capa_1" xmlns="http://www.w3.org/2000/svg" xmlns:xlink="http://www.w3.org/1999/xlink" x="0px" y="0px"
	 viewBox="-468 272 70 70" style="enable-background:new -468 272 70 70;" xml:space="preserve">
<style type="text/css">
	.st0{fill:#E4007D;}
	.st1{fill:#FFFFFF;}
</style>
<circle class="st0" cx="-433" cy="306.3" r="33.7"/>
<g>
	<path class="st1" d="M-416.8,322.3h-31.9c-2.6,0-4.8-2.2-4.8-4.8v-19.4c0-2.6,2.2-4.8,4.8-4.8h6.5l0.6-1.9c0.2-1.1,1.2-1.8,2.3-1.8
		h13.1c1.1,0,2.1,0.8,2.3,1.8v0.1l0.5,1.8h6.5c2.6,0,4.8,2.2,4.8,4.8v19.5C-412,320.2-414.1,322.3-416.8,322.3L-416.8,322.3z
		 M-448.7,294.9c-1.8,0-3.2,1.4-3.2,3.2v19.5c0,1.8,1.4,3.2,3.2,3.2h31.9c1.8,0,3.2-1.4,3.2-3.2v-19.5c0-1.8-1.4-3.2-3.2-3.2h-7.8
		l-0.9-3.1c-0.1-0.4-0.4-0.6-0.8-0.6h-13c-0.4,0-0.7,0.3-0.8,0.6l-0.9,3.1H-448.7z M-432.7,317.5c-5.6,0-10.1-4.6-10.1-10.1
		c0-5.6,4.6-10.1,10.1-10.1c5.6,0,10.1,4.6,10.1,10.1C-422.6,313-427.1,317.5-432.7,317.5L-432.7,317.5z M-432.7,298.8
		c-4.7,0-8.5,3.8-8.5,8.5c0,4.7,3.8,8.5,8.5,8.5c4.7,0,8.5-3.8,8.5-8.5C-424.2,302.7-428,298.8-432.7,298.8L-432.7,298.8z
		 M-417.8,297.9c-0.8,0-1.5,0.7-1.5,1.5c0,0.8,0.7,1.5,1.5,1.5c0.8,0,1.5-0.7,1.5-1.5C-416.3,298.5-417,297.9-417.8,297.9
		L-417.8,297.9z"/>
</g>
</svg>
