<?xml version="1.0" encoding="utf-8"?>
<!-- Generator: Adobe Illustrator 19.0.0, SVG Export Plug-In . SVG Version: 6.00 Build 0)  -->
<svg version="1.1" id="Capa_1" xmlns="http://www.w3.org/2000/svg" xmlns:xlink="http://www.w3.org/1999/xlink" x="0px" y="0px"
	 viewBox="-478 282 50 50" style="enable-background:new -478 282 50 50;" xml:space="preserve">
<style type="text/css">
	.st0{fill:#6E6E6E;}
</style>
<g>
	<g transform="translate(-298.000000, -672.000000)">
		<g transform="translate(298.000000, 672.000000)">
			<path class="st0" d="M-462.6,293.4h-11.2c-1.8,0-3.2,1.4-3.2,3.2v27.3c0,1.8,1.4,3.2,3.2,3.2h11.2c0,0,0,0,0,0V293.4
				C-462.6,293.4-462.6,293.4-462.6,293.4L-462.6,293.4z M-459.4,293.4h7.2l2.4-4h8.8l2.4,4h6.4c1.8,0,3.2,1.4,3.2,3.2v27.3
				c0,1.8-1.4,3.2-3.2,3.2h-27.3c0,0,0,0,0,0V293.4C-459.4,293.4-459.4,293.4-459.4,293.4L-459.4,293.4z M-436.1,310.2
				c0-5.3-4.3-9.6-9.6-9.6s-9.6,4.3-9.6,9.6c0,5.3,4.3,9.6,9.6,9.6S-436.1,315.5-436.1,310.2L-436.1,310.2z M-452.2,310.2
				c0-3.5,2.9-6.4,6.4-6.4s6.4,2.9,6.4,6.4c0,3.5-2.9,6.4-6.4,6.4S-452.2,313.8-452.2,310.2L-452.2,310.2z"/>
			<path class="st0" d="M-464.2,290.1c0.9,0,1.6-0.7,1.6-1.6s-0.7-1.6-1.6-1.6h-6.4c-0.9,0-1.6,0.7-1.6,1.6s0.7,1.6,1.6,1.6H-464.2z
				"/>
		</g>
	</g>
</g>
</svg>
