<?xml version="1.0" encoding="utf-8"?>
<!-- Generator: Adobe Illustrator 19.0.0, SVG Export Plug-In . SVG Version: 6.00 Build 0)  -->
<svg version="1.1" id="Capa_1" xmlns="http://www.w3.org/2000/svg" xmlns:xlink="http://www.w3.org/1999/xlink" x="0px" y="0px"
	 viewBox="-468 272 70 70" style="enable-background:new -468 272 70 70;" xml:space="preserve">
<style type="text/css">
	.st0{fill:#E6007E;}
	.st1{fill:#FFFFFF;}
</style>
<circle class="st0" cx="-433" cy="306.3" r="33.7"/>
<g>
	<g>
		<path class="st1" d="M-414.1,290c-3.4-3.4-8.8-3.4-12.2,0l-22.3,22.3c-0.2,0.2-0.3,0.4-0.3,0.6l-1.7,12.2c0,0.3,0.1,0.7,0.3,0.9
			c0.2,0.2,0.5,0.3,0.8,0.3h0.1l7.4-1c0.6-0.1,1-0.6,1-1.3c-0.1-0.6-0.6-1-1.3-1l-5.9,1l1.2-8.5l9,9c0.2,0.2,0.5,0.3,0.8,0.3
			c0.3,0,0.6-0.1,0.8-0.3l22.3-22.3c1.6-1.6,2.5-3.8,2.5-6.1C-411.6,293.8-412.5,291.7-414.1,290L-414.1,290z M-425.9,292.8l3.7,3.7
			l-20.3,20.4l-3.7-3.7L-425.9,292.8z M-437.2,322.1l-3.7-3.7l20.3-20.3l3.7,3.7L-437.2,322.1z M-415.3,300.2l-9-9
			c1.1-0.9,2.6-1.5,4.1-1.5c1.7,0,3.3,0.7,4.5,1.9c1.2,1.2,1.9,2.8,1.9,4.5C-413.9,297.6-414.4,299-415.3,300.2L-415.3,300.2z"/>
	</g>
</g>
</svg>
