<?xml version="1.0" encoding="utf-8"?>
<!-- Generator: Adobe Illustrator 19.0.0, SVG Export Plug-In . SVG Version: 6.00 Build 0)  -->
<svg version="1.1" id="Capa_1" xmlns="http://www.w3.org/2000/svg" xmlns:xlink="http://www.w3.org/1999/xlink" x="0px" y="0px"
	 viewBox="-478 282 50 50" style="enable-background:new -478 282 50 50;" xml:space="preserve">
<style type="text/css">
	.st0{fill:#E6007E;}
	.st1{fill:#FFFFFF;}
</style>
<g>
	<g>
		<path class="st0" d="M-432.3,304c0-0.2,0-0.3,0-0.5c0-7.9-6.4-14.3-14.3-14.3c-4.7,0-8.9,2.3-11.5,5.8c-1.2-0.5-2.4-0.7-3.8-0.7
			c-5.2,0-9.5,3.8-10.2,8.7c-3.5,1.9-5.9,5.4-5.9,9.4c0,6.1,5.4,11,12.1,11h25.8c6.7,0,12.1-4.9,12.1-11
			C-428,309-429.7,306-432.3,304z"/>
	</g>
	<path class="st1" d="M-434.9,309.8c0,0-1.9,2.8-5.2,5.6c-4.3,3.7-8.9,5.7-13.4,5.7c-6.3,0-12.3-3.8-17.7-11.2l-0.6-0.8l0.5-0.8
		c0.3-0.5,7.2-11.5,17.9-11.5c6.3,0,12.5,3.8,18.4,11.4l0.6,0.8L-434.9,309.8z"/>
	<g>
		<path class="st0" d="M-453.5,318.7c-5.3,0-10.4-3.2-15.1-9.5l-0.2-0.3l0.2-0.3c1.6-2.2,7.4-9.6,15.3-9.6c5.3,0,10.6,3.2,15.8,9.6
			l0.2,0.3l-0.2,0.3C-439.3,311.5-445.6,318.7-453.5,318.7z M-453.1,300.3c-5.2,0-9.4,3.9-9.4,8.6s4.2,8.6,9.4,8.6s9.4-3.9,9.4-8.6
			S-447.9,300.3-453.1,300.3z M-467.7,309c2.5,3.3,5.2,5.7,7.9,7.1c-2.2-1.7-3.6-4.3-3.6-7.2c0-2.6,1.2-5,3.1-6.8
			C-463.9,304.2-466.6,307.4-467.7,309z M-445.3,302.7c1.6,1.7,2.5,3.8,2.5,6.2c0,2.5-1,4.7-2.7,6.4c3.3-2.1,5.9-4.8,7-6.3
			C-440.7,306.3-443,304.2-445.3,302.7z"/>
	</g>
	<g>
		<g>
			<path class="st0" d="M-449.9,309.2c-1.6,0-2.8-1.3-2.8-2.8c0-1,0.5-1.9,1.3-2.4c-0.5-0.2-1.1-0.3-1.7-0.3c-2.7,0-4.9,2.2-4.9,4.9
				s2.2,4.9,4.9,4.9c2.6,0,4.8-2.1,4.9-4.7C-448.8,309-449.3,309.2-449.9,309.2z"/>
		</g>
	</g>
</g>
</svg>
