<?xml version="1.0" encoding="utf-8"?>
<!-- Generator: Adobe Illustrator 19.0.0, SVG Export Plug-In . SVG Version: 6.00 Build 0)  -->
<svg version="1.1" id="Capa_1" xmlns="http://www.w3.org/2000/svg" xmlns:xlink="http://www.w3.org/1999/xlink" x="0px" y="0px"
	 viewBox="-478 282 50 50" style="enable-background:new -478 282 50 50;" xml:space="preserve">
<style type="text/css">
	.st0{fill:#6E6E6E;}
	.st1{fill:#FFFFFF;}
</style>
<g>
	<g id="vxNcFW.tif">
		<g>
			<path class="st0" d="M-476.9,329.9c0-10.4,0-20.7,0-31.1c4.3,0,8.7,0,13-0.1c2.3,0,2.9-0.6,2.9-2.9c0-4.3,0-8.7,0.1-13
				c7.1,0,14.1,0,21.2,0c1,0.4,1.9,0.9,1.9,2.1c0,4.1,0,8.1,0,12.3c-0.5-0.1-0.8-0.2-1.1-0.4c-7.6-2.9-16.1,0.3-19.9,7.5
				c-3.8,7.1-1.7,16,4.9,20.6c4.5,3.2,9.5,3.8,14.7,2c1.2-0.4,1.4-0.3,1.4,1c0,2.5-0.5,3.1-3.1,3.1c-11.1,0-22.1,0-33.2,0
				C-475.2,331.2-476.2,330.9-476.9,329.9z"/>
			<path class="st0" d="M-428.6,326.7c-1.5,1.6-2.4,1.7-3.9,0.1c-1.7-1.7-3.3-3.3-4.9-5c-7.1,3.5-13.1,2.4-16.9-3
				c-3.5-4.9-2.8-11.6,1.7-15.8c4.2-4,10.7-4.3,15.5-0.7c4.1,3.1,6.9,9.7,2.5,16.6c2,2.1,4.1,4.2,6.1,6.3
				C-428.6,325.7-428.6,326.2-428.6,326.7z"/>
			<path class="st0" d="M-465.1,294.6c-3.6,0-7.3,0-11.1,0c3.8-3.6,7.4-7,11.1-10.5C-465.1,287.7-465.1,291.1-465.1,294.6z"/>
		</g>
	</g>
	<circle class="st1" cx="-444.5" cy="312" r="8.8"/>
</g>
</svg>
