<?xml version="1.0" encoding="utf-8"?>
<!-- Generator: Adobe Illustrator 19.0.0, SVG Export Plug-In . SVG Version: 6.00 Build 0)  -->
<svg version="1.1" id="Capa_1" xmlns="http://www.w3.org/2000/svg" xmlns:xlink="http://www.w3.org/1999/xlink" x="0px" y="0px"
	 viewBox="-478 282 50 50" style="enable-background:new -478 282 50 50;" xml:space="preserve">
<style type="text/css">
	.st0{fill:#FFFFFF;}
	.st1{fill:#E6007E;}
</style>
<g>
	<g id="iOyFH5.tif">
		<g>
			<path class="st0" d="M-455.7,331.8c7.2,0,12.2-1.7,17-4.4c4.2-2.4,5.5-6.1,5.6-10.5c0.1-3.4-1.4-6.1-4.5-7.6
				c-2.2-1-4.7-1.6-7.1-2.2c-0.7-0.2-1.7,0.2-2.3,0.6c-4.8,3.7-9.6,3.8-14.3,0c-0.5-0.4-1.2-0.9-1.7-0.8c-2.8,0.7-5.8,1.2-8.2,2.6
				c-5.2,2.9-5.5,12.3-0.8,16C-466.7,329.8-460.7,331.8-455.7,331.8z M-454.1,282.2c-6,0-10.3,3.4-11.3,9c-1,5.5,2.2,12.8,7,15.7
				c2.9,1.8,5.9,1.8,8.8-0.2c3.9-2.7,5.9-6.6,6.7-11.2C-441.6,288.1-446.5,282.2-454.1,282.2z"/>
			<path class="st1" d="M-454.1,282.2c7.6,0,12.5,5.9,11.1,13.4c-0.8,4.6-2.8,8.5-6.7,11.2c-2.8,2-5.8,2-8.8,0.2
				c-4.7-2.9-7.9-10.2-7-15.7C-464.4,285.6-460.1,282.2-454.1,282.2z"/>
		</g>
	</g>
	<path class="st1" d="M-448.3,326.5c0-6.1,5-11.1,11.1-11.1c1.5,0,2.9,0.3,4.1,0.8c-0.1-3-1.6-5.5-4.5-6.8c-2.2-1-4.7-1.6-7.1-2.2
		c-0.7-0.2-1.7,0.2-2.3,0.6c-4.8,3.7-9.6,3.8-14.3,0c-0.5-0.4-1.2-0.9-1.7-0.8c-2.8,0.7-5.8,1.2-8.2,2.6c-5.2,2.9-5.5,12.3-0.8,16
		c5.3,4.1,11.2,6.1,16.3,6.1c3.1,0,5.9-0.3,8.3-0.9C-447.9,329.5-448.3,328-448.3,326.5z"/>
	<path class="st1" d="M-446.1,325.4c0.8-0.8,1.7-1.7,2.7-2.7c0.9,1,1.8,1.9,2.7,2.9c2.5-2.6,4.9-4.9,7.3-7.3c1,1.1,1.9,2.1,2.7,2.9
		c-3.2,3.2-6.6,6.6-9.8,9.8C-442.2,329.2-444.1,327.3-446.1,325.4z"/>
</g>
</svg>
