<?xml version="1.0" encoding="utf-8"?>
<!-- Generator: Adobe Illustrator 19.0.0, SVG Export Plug-In . SVG Version: 6.00 Build 0)  -->
<svg version="1.1" id="Capa_1" xmlns="http://www.w3.org/2000/svg" xmlns:xlink="http://www.w3.org/1999/xlink" x="0px" y="0px"
	 viewBox="-478 282 50 50" style="enable-background:new -478 282 50 50;" xml:space="preserve">
<style type="text/css">
	.st0{fill:#FFFFFF;}
	.st1{fill:#6E6E6E;}
</style>
<g id="iOyFH5.tif">
	<g>
		<path class="st0" d="M-454.5,331.8c7.2,0,12.2-1.7,17.1-4.4c4.2-2.4,5.5-6.1,5.6-10.5c0.1-3.4-1.4-6.2-4.5-7.6
			c-2.2-1-4.7-1.6-7.1-2.2c-0.7-0.2-1.7,0.2-2.3,0.6c-4.8,3.7-9.6,3.8-14.3,0c-0.5-0.4-1.2-0.9-1.7-0.8c-2.8,0.7-5.8,1.2-8.2,2.6
			c-5.2,2.9-5.5,12.3-0.8,16C-465.5,329.8-459.5,331.8-454.5,331.8z M-452.9,282.2c-6,0-10.3,3.4-11.3,9c-1,5.5,2.2,12.8,7,15.7
			c2.9,1.8,5.9,1.8,8.8-0.2c3.9-2.7,5.9-6.6,6.7-11.2C-440.4,288-445.3,282.2-452.9,282.2z"/>
		<path class="st1" d="M-454.5,331.8c-5,0-11-2.1-16.3-6.1c-4.8-3.7-4.5-13.1,0.8-16c2.5-1.4,5.5-1.9,8.2-2.6
			c0.5-0.1,1.2,0.4,1.7,0.8c4.7,3.7,9.5,3.7,14.3,0c0.6-0.5,1.6-0.8,2.3-0.6c2.4,0.6,4.9,1.1,7.1,2.2c3.1,1.4,4.6,4.2,4.5,7.6
			c-0.1,4.4-1.4,8.1-5.6,10.5C-442.3,330.1-447.3,331.8-454.5,331.8z"/>
		<path class="st1" d="M-452.9,282.2c7.6,0,12.5,5.9,11.1,13.4c-0.8,4.6-2.8,8.5-6.7,11.2c-2.8,2-5.8,2-8.8,0.2
			c-4.7-2.9-7.9-10.2-7-15.7C-463.2,285.6-458.9,282.1-452.9,282.2z"/>
	</g>
</g>
</svg>
