<?xml version="1.0" encoding="utf-8"?>
<!-- Generator: Adobe Illustrator 19.1.0, SVG Export Plug-In . SVG Version: 6.00 Build 0)  -->
<svg version="1.1" id="Capa_1" xmlns="http://www.w3.org/2000/svg" xmlns:xlink="http://www.w3.org/1999/xlink" x="0px" y="0px"
	 viewBox="0 0 70 70" style="enable-background:new 0 0 70 70;" xml:space="preserve">
<style type="text/css">
	.st0{fill:#C3007A;}
	.st1{fill:#FFFFFF;}
</style>
<circle class="st0" cx="35" cy="34.3" r="33.7"/>
<g>
	<path class="st1" d="M47.8,19.2h-5.2v-3.4c0-0.7-0.5-1.2-1.2-1.2c-0.1,0-0.1,0-0.1,0c0,0-0.1,0-0.1,0H28.7c-0.7,0-1.2,0.5-1.2,1.2
		v3.4h-5.2c-1.5,0-2.7,1.2-2.7,2.7v4.3H22v24.7c0,1.5,1.1,2.6,2.6,2.6h20.9c1.5,0,2.7-1.1,2.7-2.6V26.1h2.3v-4.3
		C50.4,20.3,49.3,19.2,47.8,19.2L47.8,19.2z M29.9,17h10.2v2.2H29.9V17z M45.7,50.8c0,0.2-0.1,0.2-0.2,0.2H24.6
		c-0.2,0-0.2-0.1-0.2-0.2V26.1h21.3V50.8z M48,23.7H22.1v-1.9c0-0.2,0.1-0.2,0.2-0.2h25.4c0.2,0,0.2,0.1,0.2,0.2V23.7z M48,23.7"/>
	<rect x="39.5" y="29" class="st1" width="2.4" height="19.9"/>
	<rect x="33.8" y="29" class="st1" width="2.4" height="19.9"/>
	<rect x="28.2" y="29" class="st1" width="2.4" height="19.9"/>
</g>
<circle class="st1" cx="46.9" cy="51.5" r="8.5"/>
<g>
	<path class="st0" d="M46.3,51.6l-2-2.4C44.2,49,44,48.9,44,48.6c0-0.4,0.3-0.7,0.7-0.7c0.4,0,0.7,0.4,0.9,0.7l1.7,2l1.7-2
		c0.2-0.3,0.5-0.7,0.9-0.7c0.4,0,0.7,0.3,0.7,0.7c0,0.2-0.2,0.4-0.3,0.6l-2,2.4l2,2.4c0.2,0.2,0.3,0.4,0.3,0.6
		c0,0.4-0.3,0.7-0.7,0.7c-0.4,0-0.7-0.4-0.9-0.7l-1.7-2l-1.7,2c-0.2,0.3-0.5,0.7-0.9,0.7c-0.4,0-0.7-0.3-0.7-0.7
		c0-0.2,0.2-0.4,0.3-0.6L46.3,51.6z"/>
</g>
</svg>
