<?xml version="1.0" encoding="utf-8"?>
<!-- Generator: Adobe Illustrator 19.1.0, SVG Export Plug-In . SVG Version: 6.00 Build 0)  -->
<svg version="1.1" id="Capa_1" xmlns="http://www.w3.org/2000/svg" xmlns:xlink="http://www.w3.org/1999/xlink" x="0px" y="0px"
	 viewBox="0 0 50 50" style="enable-background:new 0 0 50 50;" xml:space="preserve">
<style type="text/css">
	.st0{fill:#6F6F6F;}
</style>
<g>
	<path class="st0" d="M41.2,30.6h-5.7l2.4-3.5c4.6-6.1,3.9-16.2-1.4-21.6C33.6,2.6,29.7,1,25.6,1c-4.1,0-7.9,1.6-10.8,4.5
		c-5.4,5.4-6,15.4-1.4,21.6l2.5,3.5h-6L1,49h48.9L41.2,30.6z M25.8,10.6c3.1,0,5.6,2.5,5.6,5.6s-2.5,5.6-5.6,5.6
		c-3.1,0-5.6-2.5-5.6-5.6S22.7,10.6,25.8,10.6L25.8,10.6z M10.8,32.2h6.1l8.7,12.6l8.7-12.6h5.8l7.2,15.2H3.5L10.8,32.2z M10.8,32.2
		"/>
</g>
</svg>
