<?xml version="1.0" encoding="utf-8"?>
<!-- Generator: Adobe Illustrator 19.1.0, SVG Export Plug-In . SVG Version: 6.00 Build 0)  -->
<svg version="1.1" id="Capa_1" xmlns="http://www.w3.org/2000/svg" xmlns:xlink="http://www.w3.org/1999/xlink" x="0px" y="0px"
	 viewBox="-224 76 50 50" style="enable-background:new -224 76 50 50;" xml:space="preserve">
<style type="text/css">
	.st0{fill:#FFFFFF;}
</style>
<g>
	<g transform="translate(-298.000000, -672.000000)">
		<g transform="translate(298.000000, 672.000000)">
			<path class="st0" d="M-208.6,87.4h-11.2c-1.8,0-3.2,1.4-3.2,3.2v27.3c0,1.8,1.4,3.2,3.2,3.2h11.2l0,0V87.4L-208.6,87.4
				L-208.6,87.4z M-205.4,87.4h7.2l2.4-4h8.8l2.4,4h6.4c1.8,0,3.2,1.4,3.2,3.2v27.3c0,1.8-1.4,3.2-3.2,3.2h-27.3l0,0V87.4
				C-205.4,87.4-205.4,87.4-205.4,87.4L-205.4,87.4z M-182.1,104.2c0-5.3-4.3-9.6-9.6-9.6s-9.6,4.3-9.6,9.6c0,5.3,4.3,9.6,9.6,9.6
				S-182.1,109.5-182.1,104.2L-182.1,104.2z M-198.2,104.2c0-3.5,2.9-6.4,6.4-6.4s6.4,2.9,6.4,6.4s-2.9,6.4-6.4,6.4
				S-198.2,107.8-198.2,104.2L-198.2,104.2z"/>
			<path class="st0" d="M-210.2,84.1c0.9,0,1.6-0.7,1.6-1.6s-0.7-1.6-1.6-1.6h-6.4c-0.9,0-1.6,0.7-1.6,1.6s0.7,1.6,1.6,1.6H-210.2z"
				/>
		</g>
	</g>
</g>
</svg>
