<?xml version="1.0" encoding="utf-8"?>
<!-- Generator: Adobe Illustrator 19.0.0, SVG Export Plug-In . SVG Version: 6.00 Build 0)  -->
<svg version="1.1" id="Capa_1" xmlns="http://www.w3.org/2000/svg" xmlns:xlink="http://www.w3.org/1999/xlink" x="0px" y="0px"
	 viewBox="-468 272 70 70" style="enable-background:new -468 272 70 70;" xml:space="preserve">
<style type="text/css">
	.st0{fill:#E6007E;}
	.st1{fill:#FFFFFF;}
</style>
<circle class="st0" cx="-433" cy="306.3" r="33.7"/>
<g>
	<path class="st1" d="M-420.2,291.2h-5.2v-3.4c0-0.7-0.5-1.2-1.2-1.2c-0.1,0-0.1,0-0.1,0h-0.1h-12.5c-0.7,0-1.2,0.5-1.2,1.2v3.4
		h-5.2c-1.5,0-2.7,1.2-2.7,2.7v4.3h2.4v24.7c0,1.5,1.1,2.6,2.6,2.6h20.9c1.5,0,2.7-1.1,2.7-2.6v-24.8h2.3v-4.3
		C-417.6,292.3-418.7,291.2-420.2,291.2L-420.2,291.2z M-438.1,289h10.2v2.2h-10.2V289z M-422.3,322.8c0,0.2-0.1,0.2-0.2,0.2h-20.9
		c-0.2,0-0.2-0.1-0.2-0.2v-24.7h21.3C-422.3,298.1-422.3,322.8-422.3,322.8z M-420,295.7h-25.9v-1.9c0-0.2,0.1-0.2,0.2-0.2h25.4
		c0.2,0,0.2,0.1,0.2,0.2v1.9H-420z"/>
	<rect x="-428.5" y="301" class="st1" width="2.4" height="19.9"/>
	<rect x="-434.2" y="301" class="st1" width="2.4" height="19.9"/>
	<rect x="-439.8" y="301" class="st1" width="2.4" height="19.9"/>
</g>
<circle class="st1" cx="-421.1" cy="323.5" r="8.5"/>
<g>
	<path class="st0" d="M-421.7,323.6l-2-2.4c-0.1-0.2-0.3-0.3-0.3-0.6c0-0.4,0.3-0.7,0.7-0.7c0.4,0,0.7,0.4,0.9,0.7l1.7,2l1.7-2
		c0.2-0.3,0.5-0.7,0.9-0.7c0.4,0,0.7,0.3,0.7,0.7c0,0.2-0.2,0.4-0.3,0.6l-2,2.4l2,2.4c0.2,0.2,0.3,0.4,0.3,0.6
		c0,0.4-0.3,0.7-0.7,0.7c-0.4,0-0.7-0.4-0.9-0.7l-1.7-2l-1.7,2c-0.2,0.3-0.5,0.7-0.9,0.7c-0.4,0-0.7-0.3-0.7-0.7
		c0-0.2,0.2-0.4,0.3-0.6L-421.7,323.6z"/>
</g>
</svg>
