<?xml version="1.0" encoding="utf-8"?>
<!-- Generator: Adobe Illustrator 19.1.0, SVG Export Plug-In . SVG Version: 6.00 Build 0)  -->
<svg version="1.1" id="Capa_1" xmlns="http://www.w3.org/2000/svg" xmlns:xlink="http://www.w3.org/1999/xlink" x="0px" y="0px"
	 viewBox="0 0 70 70" style="enable-background:new 0 0 70 70;" xml:space="preserve">
<style type="text/css">
	.st0{fill:#C3007A;}
	.st1{fill:#FFFFFF;}
</style>
<circle class="st0" cx="35" cy="34.3" r="33.7"/>
<g>
	<g>
		<path class="st1" d="M53.9,18c-3.4-3.4-8.8-3.4-12.2,0L19.4,40.3c-0.2,0.2-0.3,0.4-0.3,0.6l-1.7,12.2c0,0.3,0.1,0.7,0.3,0.9
			c0.2,0.2,0.5,0.3,0.8,0.3c0,0,0.1,0,0.1,0l7.4-1c0.6-0.1,1-0.6,1-1.3c-0.1-0.6-0.6-1-1.3-1L19.8,52l1.2-8.5l9,9
			c0.2,0.2,0.5,0.3,0.8,0.3c0.3,0,0.6-0.1,0.8-0.3l22.3-22.3c1.6-1.6,2.5-3.8,2.5-6.1C56.4,21.8,55.5,19.7,53.9,18L53.9,18z
			 M42.1,20.8l3.7,3.7L25.5,44.9l-3.7-3.7L42.1,20.8z M30.8,50.1l-3.7-3.7l20.3-20.3l3.7,3.7L30.8,50.1z M52.7,28.2l-9-9
			c1.1-0.9,2.6-1.5,4.1-1.5c1.7,0,3.3,0.7,4.5,1.9c1.2,1.2,1.9,2.8,1.9,4.5C54.1,25.6,53.6,27,52.7,28.2L52.7,28.2z M52.7,28.2"/>
	</g>
</g>
</svg>
