<?xml version="1.0" encoding="utf-8"?>
<!-- Generator: Adobe Illustrator 19.1.0, SVG Export Plug-In . SVG Version: 6.00 Build 0)  -->
<svg version="1.1" id="Capa_1" xmlns="http://www.w3.org/2000/svg" xmlns:xlink="http://www.w3.org/1999/xlink" x="0px" y="0px"
	 viewBox="-224 76 50 50" style="enable-background:new -224 76 50 50;" xml:space="preserve">
<style type="text/css">
	.st0{fill:#FFFFFF;}
</style>
<g>
	<path class="st0" d="M-223.1,123.9c0-10.4,0-20.7,0-31.1c4.3,0,8.7,0,13-0.1c2.3,0,2.9-0.6,2.9-2.9c0-4.3,0-8.7,0.1-13
		c7.1,0,14.1,0,21.2,0c1,0.4,1.9,0.9,1.9,2.1c0,4.1,0,8.1,0,12.3c-0.5-0.1-0.8-0.2-1.1-0.4c-7.6-2.9-16.1,0.3-19.9,7.5
		c-3.8,7.1-1.7,16,4.9,20.6c4.5,3.2,9.5,3.8,14.7,2c1.2-0.4,1.4-0.3,1.4,1c0,2.5-0.5,3.1-3.1,3.1c-11.1,0-22.1,0-33.2,0
		C-221.4,125.3-222.3,125-223.1,123.9z"/>
	<path class="st0" d="M-211.3,88.7c-3.6,0-7.3,0-11.1,0c3.8-3.6,7.4-7,11.1-10.5C-211.3,81.8-211.3,85.1-211.3,88.7z"/>
	<path class="st0" d="M-180.9,112.9c4.3-6.9,1.6-13.5-2.5-16.6c-4.8-3.6-11.3-3.3-15.5,0.7c-4.4,4.2-5.1,10.9-1.7,15.8
		c3.8,5.4,9.9,6.5,16.9,3c1.6,1.6,3.3,3.3,4.9,5c1.6,1.6,2.5,1.6,3.9-0.1c0-0.5,0-1,0-1.5C-176.8,117.1-178.8,115-180.9,112.9z
		 M-190.7,114.8c-4.9,0-8.8-3.9-8.8-8.8s3.9-8.8,8.8-8.8s8.8,3.9,8.8,8.8C-181.9,110.9-185.8,114.8-190.7,114.8z"/>
</g>
</svg>
