<?xml version="1.0" encoding="utf-8"?>
<!-- Generator: Adobe Illustrator 19.1.0, SVG Export Plug-In . SVG Version: 6.00 Build 0)  -->
<svg version="1.1" id="Capa_1" xmlns="http://www.w3.org/2000/svg" xmlns:xlink="http://www.w3.org/1999/xlink" x="0px" y="0px"
	 viewBox="-224 76 50 50" style="enable-background:new -224 76 50 50;" xml:space="preserve">
<style type="text/css">
	.st0{fill:#FF0E92;}
</style>
<g>
	<path class="st0" d="M-183.3,106.6h-5.7l2.4-3.5c4.6-6.1,3.9-16.2-1.4-21.6c-2.9-2.9-6.8-4.5-10.9-4.5s-7.9,1.6-10.8,4.5
		c-5.4,5.4-6,15.4-1.4,21.6l2.5,3.5h-6l-8.9,18.4h48.9L-183.3,106.6z M-198.8,86.6c3.1,0,5.6,2.5,5.6,5.6s-2.5,5.6-5.6,5.6
		s-5.6-2.5-5.6-5.6C-204.3,89.1-201.9,86.6-198.8,86.6L-198.8,86.6z M-213.8,108.2h6.1l8.7,12.6l8.7-12.6h5.8l7.2,15.2h-43.8
		L-213.8,108.2z"/>
</g>
</svg>
