<?xml version="1.0" encoding="utf-8"?>
<!-- Generator: Adobe Illustrator 19.0.0, SVG Export Plug-In . SVG Version: 6.00 Build 0)  -->
<svg version="1.1" id="Capa_1" xmlns="http://www.w3.org/2000/svg" xmlns:xlink="http://www.w3.org/1999/xlink" x="0px" y="0px"
	 viewBox="-478 282 50 50" style="enable-background:new -478 282 50 50;" xml:space="preserve">
<style type="text/css">
	.st0{fill:#E6007E;}
</style>
<g>
	<path class="st0" d="M-437.8,312.6h-5.7l2.4-3.5c4.6-6.1,3.9-16.2-1.4-21.6c-2.9-2.9-6.8-4.5-10.9-4.5s-7.9,1.6-10.8,4.5
		c-5.4,5.4-6,15.4-1.4,21.6l2.5,3.5h-6L-478,331h48.9L-437.8,312.6z M-453.2,292.6c3.1,0,5.6,2.5,5.6,5.6c0,3.1-2.5,5.6-5.6,5.6
		c-3.1,0-5.6-2.5-5.6-5.6C-458.8,295.1-456.3,292.6-453.2,292.6L-453.2,292.6z M-468.2,314.2h6.1l8.7,12.6l8.7-12.6h5.8l7.2,15.2
		h-43.8L-468.2,314.2z"/>
</g>
</svg>
