<?xml version="1.0" encoding="utf-8"?>
<!-- Generator: Adobe Illustrator 19.0.0, SVG Export Plug-In . SVG Version: 6.00 Build 0)  -->
<svg version="1.1" id="Capa_1" xmlns="http://www.w3.org/2000/svg" xmlns:xlink="http://www.w3.org/1999/xlink" x="0px" y="0px"
	 viewBox="-468 272 70 70" style="enable-background:new -468 272 70 70;" xml:space="preserve">
<style type="text/css">
	.st0{fill:#E6007E;}
	.st1{fill:#FFFFFF;}
</style>
<path class="st0" d="M-422,293.3h-21.9c-1.6,0-2.8,1.3-2.8,2.8v40.2c0,0.8,0.4,1.6,0.9,2.1c0.1,0.1,0.2,0.2,0.4,0.3c0,0,0,0,0.1,0.1
	c0.1,0,0.2,0.1,0.2,0.1c0.1,0,0.2,0.1,0.3,0.1c0,0,0.1,0,0.1,0.1c2.1,0.8,6.5,1.3,11.6,1.3c5.1,0,9.5-0.5,11.7-1.3
	c1.2-0.3,2.1-1.4,2.1-2.7v-40.2C-419.2,294.6-420.5,293.3-422,293.3z"/>
<g>
	<g>
		<path class="st0" d="M-440.1,277.9C-440.1,277.9-440.1,277.9-440.1,277.9l-11.3-4.2c-0.1,0-0.1-0.1-0.1-0.2s0.1-0.1,0.2-0.1
			l11.3,4.2c0.1,0,0.1,0.1,0.1,0.2C-440,277.8-440,277.9-440.1,277.9z"/>
	</g>
	<g>
		<path class="st0" d="M-440.1,280.7h-8.9c-0.1,0-0.2-0.1-0.2-0.2s0.1-0.2,0.2-0.2h8.9c0.1,0,0.2,0.1,0.2,0.2
			S-440,280.7-440.1,280.7z"/>
	</g>
	<g>
		<path class="st0" d="M-449,286.7c-0.1,0-0.1,0-0.2-0.1c0-0.1,0-0.2,0.1-0.2l8.9-3.5c0.1,0,0.2,0,0.2,0.1c0,0.1,0,0.2-0.1,0.2
			L-449,286.7C-449,286.7-449,286.7-449,286.7z"/>
	</g>
	<g>
		<path class="st0" d="M-424.9,287.7h-15.7c-1.9,1.3-3.3,1.4-3.6,3.8h22.9C-421.6,289.1-423,289-424.9,287.7z"/>
		<path class="st0" d="M-426.7,285.6c-0.1-1-0.9-1.8-2-1.8h-3.2v-1.2h1.2v-5h-4.3v1.1c0.8,0.1,1.3,0.7,1.3,1.4s-0.6,1.2-1.3,1.4v1.1
			h1.4v1.2h-2.8c-1,0-1.9,0.8-2,1.8H-426.7z"/>
	</g>
</g>
<path class="st1" d="M-424.4,314c0.3-0.4,0.4-0.8,0.4-1.4c0-0.5-0.3-1-0.8-1.6l-1.3-1.4c-1.4-1.4-2.8-2.8-4.2-4.2l-2.1-2l-2.1,2
	c-1.4,1.4-2.8,2.8-4.2,4.2l-1.4,1.5c-0.5,0.5-0.7,1-0.7,1.4v0.2c0,0.3,0,0.6,0.1,0.8c0.1,0.2,0.2,0.4,0.4,0.7
	c0.2,0.2,0.4,0.4,0.6,0.6c0.2,0.2,0.4,0.3,0.7,0.4c0.2,0.1,0.5,0.1,0.8,0.1s0.6,0,0.8-0.1c0.2-0.1,0.5-0.3,0.7-0.5
	c0.3-0.2,0.6-0.5,0.9-0.8l0.8-0.9v8.7c0,0.5,0.1,1,0.3,1.3c0.2,0.3,0.4,0.5,0.5,0.7c0.2,0.2,0.4,0.3,0.7,0.5
	c0.3,0.2,0.7,0.3,1.1,0.3c0.4,0,0.8-0.1,1.1-0.3c0.3-0.2,0.5-0.4,0.7-0.5c0.2-0.2,0.3-0.4,0.5-0.7c0.2-0.3,0.3-0.7,0.3-1.3v-8.5
	l1.5,1.4c0.6,0.5,1.1,0.8,1.6,0.8c0.5,0,0.9-0.1,1.3-0.4C-425,314.7-424.7,314.4-424.4,314"/>
</svg>
