<?xml version="1.0" encoding="utf-8"?>
<!-- Generator: Adobe Illustrator 19.1.0, SVG Export Plug-In . SVG Version: 6.00 Build 0)  -->
<svg version="1.1" id="Capa_1" xmlns="http://www.w3.org/2000/svg" xmlns:xlink="http://www.w3.org/1999/xlink" x="0px" y="0px"
	 viewBox="0 0 50 50" style="enable-background:new 0 0 50 50;" xml:space="preserve">
<style type="text/css">
	.st0{fill:#C4007A;}
</style>
<g>
	<path class="st0" d="M25,17.4c-4.6,0-8.5,3.7-8.5,8.3c0,4.6,3.9,8.4,8.5,8.4c4.6,0,8.5-3.8,8.5-8.3C33.5,21.2,29.7,17.4,25,17.4z"
		/>
	<path class="st0" d="M0,0v50h50V0H0z M35,36.5c-4,2.2-8.2,3.4-12.8,2.6c-3-0.5-5.8-1.7-8.5-3.4c-4.3-2.7-8-6.4-11.4-10.7
		c5.3-6.6,11.1-12,19-13.9c3.2-0.8,6.3-0.5,9.4,0.6C37.7,14.1,42.9,19,47.7,25C44,29.8,39.9,33.7,35,36.5z"/>
</g>
</svg>
