<?xml version="1.0" encoding="utf-8"?>
<!-- Generator: Adobe Illustrator 19.1.0, SVG Export Plug-In . SVG Version: 6.00 Build 0)  -->
<svg version="1.1" id="Capa_1" xmlns="http://www.w3.org/2000/svg" xmlns:xlink="http://www.w3.org/1999/xlink" x="0px" y="0px"
	 viewBox="-114 116 70 70" style="enable-background:new -114 116 70 70;" xml:space="preserve">
<style type="text/css">
	.st0{fill:#6E6E6E;}
	.st1{fill:#FFFFFF;}
</style>
<circle class="st0" cx="-79.2" cy="150.7" r="33.7"/>
<path class="st1" d="M-78,133.5l4.3,8.8c0.3,0.6,0.9,1,1.6,1.1l9.7,1.4c1.7,0.2,2.4,2.3,1.1,3.5l-7,6.8c-0.5,0.5-0.7,1.2-0.6,1.8
	l1.7,9.6c0.3,1.7-1.5,3-3,2.2l-8.7-4.5c-0.6-0.3-1.3-0.3-1.9,0l-8.7,4.5c-1.5,0.8-3.3-0.5-3-2.2l1.7-9.6c0.1-0.7-0.1-1.4-0.6-1.8
	l-7-6.8c-1.2-1.2-0.5-3.3,1.1-3.5l9.7-1.4c0.7-0.1,1.3-0.5,1.6-1.1l4.3-8.8C-80.9,132-78.7,132-78,133.5L-78,133.5z M-78,133.5"/>
</svg>
