<?xml version="1.0" encoding="utf-8"?>
<!-- Generator: Adobe Illustrator 19.1.0, SVG Export Plug-In . SVG Version: 6.00 Build 0)  -->
<svg version="1.1" id="Capa_1" xmlns="http://www.w3.org/2000/svg" xmlns:xlink="http://www.w3.org/1999/xlink" x="0px" y="0px"
	 viewBox="0 0 50 50" style="enable-background:new 0 0 50 50;" xml:space="preserve">
<style type="text/css">
	.st0{fill:#6E6E6E;}
</style>
<g>
	<path class="st0" d="M18.8,8.3C13,8.3,8.3,12.9,8.3,18.9c0,6.3,5.2,10.5,10.4,10.5c5.9,0,10.6-4.6,10.6-10.5
		C29.4,13.4,25.1,8.3,18.8,8.3z"/>
	<path class="st0" d="M0,0v50h50V0H0z M42.6,44.2c-0.9,0.2-1.6-0.2-2.2-0.8c-4.5-4.5-9-9-13.5-13.5c-0.4-0.4-0.6-0.4-1-0.1
		c-2.7,1.8-5.7,2.4-9,2c-6.3-1-11.1-6.4-11.1-12.8c0-0.6,0.1-1.2,0.1-1.8C6.8,10,13.6,4.9,20.6,5.9c6.7,1,11.6,7,11.2,13.6
		c-0.2,2.3-0.8,4.4-2,6.3c-0.3,0.5-0.3,0.7,0.1,1.1c4.5,4.4,8.9,8.9,13.4,13.4c0.2,0.2,0.4,0.4,0.6,0.7C44.7,42.2,44,43.9,42.6,44.2
		z"/>
</g>
</svg>
