<?xml version="1.0" encoding="utf-8"?>
<!-- Generator: Adobe Illustrator 19.1.0, SVG Export Plug-In . SVG Version: 6.00 Build 0)  -->
<svg version="1.1" id="Capa_1" xmlns="http://www.w3.org/2000/svg" xmlns:xlink="http://www.w3.org/1999/xlink" x="0px" y="0px"
	 viewBox="0 0 70 70" style="enable-background:new 0 0 70 70;" xml:space="preserve">
<style type="text/css">
	.st0{fill:#C3007A;}
	.st1{fill:#FFFFFF;}
</style>
<circle class="st0" cx="35" cy="34.3" r="33.7"/>
<g>
	<path class="st1" d="M51.2,50.3H19.3c-2.6,0-4.8-2.2-4.8-4.8V26.1c0-2.6,2.2-4.8,4.8-4.8h6.5l0.6-1.9c0.2-1.1,1.2-1.8,2.3-1.8h13.1
		c1.1,0,2.1,0.8,2.3,1.8l0,0.1l0.5,1.8h6.5c2.6,0,4.8,2.2,4.8,4.8v19.5C56,48.2,53.9,50.3,51.2,50.3L51.2,50.3z M19.3,22.9
		c-1.8,0-3.2,1.4-3.2,3.2v19.5c0,1.8,1.4,3.2,3.2,3.2h31.9c1.8,0,3.2-1.4,3.2-3.2V26.1c0-1.8-1.4-3.2-3.2-3.2h-7.8l-0.9-3.1
		c-0.1-0.4-0.4-0.6-0.8-0.6H28.7c-0.4,0-0.7,0.3-0.8,0.6L27,22.9H19.3z M35.3,45.5c-5.6,0-10.1-4.6-10.1-10.1
		c0-5.6,4.6-10.1,10.1-10.1c5.6,0,10.1,4.6,10.1,10.1C45.4,41,40.9,45.5,35.3,45.5L35.3,45.5z M35.3,26.8c-4.7,0-8.5,3.8-8.5,8.5
		c0,4.7,3.8,8.5,8.5,8.5c4.7,0,8.5-3.8,8.5-8.5C43.8,30.7,40,26.8,35.3,26.8L35.3,26.8z M50.2,25.9c-0.8,0-1.5,0.7-1.5,1.5
		c0,0.8,0.7,1.5,1.5,1.5c0.8,0,1.5-0.7,1.5-1.5C51.7,26.5,51,25.9,50.2,25.9L50.2,25.9z M50.2,25.9"/>
</g>
</svg>
