<?xml version="1.0" encoding="utf-8"?>
<!-- Generator: Adobe Illustrator 19.0.0, SVG Export Plug-In . SVG Version: 6.00 Build 0)  -->
<svg version="1.1" id="Capa_1" xmlns="http://www.w3.org/2000/svg" xmlns:xlink="http://www.w3.org/1999/xlink" x="0px" y="0px"
	 viewBox="-468 272 70 70" style="enable-background:new -468 272 70 70;" xml:space="preserve">
<style type="text/css">
	.st0{fill:#E6007E;}
	.st1{fill:#FFFFFF;}
</style>
<rect x="-468" y="272" class="st0" width="70" height="70"/>
<g>
	<g>
		<path class="st1" d="M-450.4,320.1l0.2,0.5l2.1,11.8c0.2,0.9,0.8,1.7,1.5,2s1.8,0.3,2.6-0.2c3-2,7-4.5,6.8-4.7L-450.4,320.1z"/>
	</g>
	<path class="st1" d="M-457.9,303.4c-1.2,0.5-2,1.5-2.1,2.7s0.3,2.4,1.4,3.2l11,8l39.5-31l-34.9,34.5l15.1,11
		c0.9,0.8,2.3,0.9,3.3,0.6c1.2-0.3,2.1-1.2,2.4-2.3l16.2-44.5c0.2-0.5,0-0.9-0.3-1.4c-0.3-0.3-0.9-0.5-1.4-0.3L-457.9,303.4z"/>
</g>
</svg>
