<?xml version="1.0" encoding="utf-8"?>
<!-- Generator: Adobe Illustrator 19.1.0, SVG Export Plug-In . SVG Version: 6.00 Build 0)  -->
<svg version="1.1" id="Capa_1" xmlns="http://www.w3.org/2000/svg" xmlns:xlink="http://www.w3.org/1999/xlink" x="0px" y="0px"
	 viewBox="0 0 70 70" style="enable-background:new 0 0 70 70;" xml:space="preserve">
<style type="text/css">
	.st0{fill:#C3007A;}
	.st1{fill:#FFFFFF;}
</style>
<rect class="st0" width="70" height="70"/>
<g>
	<g>
		<path class="st1" d="M23.5,44.4l0.1,0.3l1.4,7.8c0.1,0.6,0.5,1.1,1,1.3c0.5,0.2,1.2,0.2,1.7-0.1c2-1.3,4.6-3,4.5-3.1L23.5,44.4z
			 M23.5,44.4"/>
	</g>
	<path class="st1" d="M18.5,33.4c-0.8,0.3-1.3,1-1.4,1.8c-0.1,0.8,0.2,1.6,0.9,2.1l7.3,5.3l26.1-20.5L28.3,44.9l10,7.3
		c0.6,0.5,1.5,0.6,2.2,0.4c0.8-0.2,1.4-0.8,1.6-1.5l10.7-29.4c0.1-0.3,0-0.6-0.2-0.9c-0.2-0.2-0.6-0.3-0.9-0.2L18.5,33.4z"/>
</g>
</svg>
