<?xml version="1.0" encoding="utf-8"?>
<!-- Generator: Adobe Illustrator 19.1.0, SVG Export Plug-In . SVG Version: 6.00 Build 0)  -->
<svg version="1.1" id="Capa_1" xmlns="http://www.w3.org/2000/svg" xmlns:xlink="http://www.w3.org/1999/xlink" x="0px" y="0px"
	 viewBox="0 0 70 70" style="enable-background:new 0 0 70 70;" xml:space="preserve">
<style type="text/css">
	.st0{fill:#C3007A;}
	.st1{fill:#FFFFFF;}
</style>
<circle class="st0" cx="35" cy="35.3" r="33.7"/>
<g>
	<path class="st1" d="M50.8,28c-0.4-7.2-6.4-13-13.5-13c-4.3,0-8.5,2.1-11.2,5.6c-0.1,0-0.1,0-0.2-0.1c-0.2-0.1-0.3-0.1-0.5-0.2
		c-0.1,0-0.2-0.1-0.3-0.1c-0.2-0.1-0.3-0.1-0.5-0.2c-0.1,0-0.2-0.1-0.3-0.1c-0.2,0-0.4-0.1-0.5-0.1c-0.1,0-0.2,0-0.2,0
		c-0.3,0-0.5,0-0.8,0c-4,0-7.2,3.2-7.2,7.2c0,0.1,0,0.2,0,0.3c-3.3,1.8-5.6,5.6-5.6,9.4C10,42.4,14.6,47,20.3,47h4.1
		c0.4,0,0.8-0.4,0.8-0.8c0-0.4-0.4-0.8-0.8-0.8h-4.1c-4.8,0-8.7-3.9-8.7-8.7c0-3.3,2.2-6.8,5.1-8.2l0.5-0.2v-0.5c0-0.1,0-0.2,0-0.3
		l0-0.1l0-0.1c0-0.1,0-0.1,0-0.2c0-3.1,2.5-5.6,5.6-5.6c0.2,0,0.5,0,0.7,0.1c0.1,0,0.1,0,0.2,0c0.2,0,0.4,0.1,0.6,0.1
		c0,0,0.1,0,0.1,0c0.2,0.1,0.5,0.2,0.7,0.3c0.1,0,0.1,0.1,0.2,0.1c0.2,0.1,0.4,0.2,0.6,0.3c1.5,1,2.6,2.7,2.6,4.7
		c0,0.4,0.4,0.8,0.8,0.8c0.4,0,0.8-0.4,0.8-0.8c0-2.2-1-4.2-2.6-5.5c2.3-3,6.1-4.9,9.8-4.9c6.2,0,11.3,4.9,11.9,11.1
		c-0.8-0.1-2-0.1-3.3,0.1c-0.4,0.1-0.7,0.5-0.7,0.9c0.1,0.4,0.4,0.7,0.8,0.7c0,0,0.1,0,0.1,0c1.8-0.3,3.6,0,3.7,0
		c3.7,0.7,6.5,4.1,6.5,8c0,4.4-3.6,8-8,8h-3.2c-0.4,0-0.8,0.4-0.8,0.8c0,0.4,0.4,0.8,0.8,0.8h3.2c5.3,0,9.6-4.3,9.6-9.6
		C58,33,54.9,29,50.8,28L50.8,28z M50.8,28"/>
	<path class="st1" d="M35.4,36c-0.1-0.1-0.2-0.1-0.3-0.2c-0.2-0.1-0.4-0.1-0.6,0c-0.1,0-0.2,0.1-0.3,0.2l-6.4,6.4
		c-0.3,0.3-0.3,0.8,0,1.1c0.2,0.2,0.4,0.2,0.6,0.2c0.2,0,0.4-0.1,0.6-0.2l5-5V55c0,0.4,0.4,0.8,0.8,0.8c0.4,0,0.8-0.4,0.8-0.8V38.5
		l5,5c0.2,0.2,0.4,0.2,0.6,0.2c0.2,0,0.4-0.1,0.6-0.2c0.3-0.3,0.3-0.8,0-1.1L35.4,36z M35.4,36"/>
</g>
</svg>
