<?xml version="1.0" encoding="utf-8"?>
<!-- Generator: Adobe Illustrator 19.1.0, SVG Export Plug-In . SVG Version: 6.00 Build 0)  -->
<svg version="1.1" id="Capa_1" xmlns="http://www.w3.org/2000/svg" xmlns:xlink="http://www.w3.org/1999/xlink" x="0px" y="0px"
	 viewBox="-224 76 50 50" style="enable-background:new -224 76 50 50;" xml:space="preserve">
<style type="text/css">
	.st0{fill:#FFFFFF;}
</style>
<path class="st0" d="M-199.5,102.8c6.8,0,9.3-6.9,9.9-12.5c0.8-6.9-2.5-12.1-9.9-12.1c-7.5,0-10.7,5.2-9.9,12.1
	C-208.8,95.9-206.3,102.8-199.5,102.8L-199.5,102.8z M-199.5,102.8"/>
<path class="st0" d="M-181,119.1c-0.1-2.2-0.3-4.4-0.7-6.5c-0.5-2.6-1-6.4-3.3-8.1c-1.3-1-3-1.3-4.5-1.9c-0.7-0.3-1.4-0.6-2-0.9
	c-2.1,2.3-4.8,3.5-7.9,3.5c-3.2,0-5.9-1.2-7.9-3.5c-0.6,0.3-1.3,0.6-2,0.9c-1.5,0.6-3.2,0.9-4.5,1.9c-2.3,1.7-2.9,5.5-3.3,8.1
	c-0.4,2.1-0.6,4.3-0.7,6.5c-0.1,1.7,0.8,1.9,2.2,2.4c1.8,0.6,3.6,1.1,5.4,1.5c3.6,0.8,7.2,1.3,10.9,1.4c3.7,0,7.3-0.6,10.9-1.4
	c1.8-0.4,3.7-0.9,5.4-1.5C-181.8,121-180.9,120.8-181,119.1L-181,119.1z M-181,119.1"/>
</svg>
