<?xml version="1.0" encoding="utf-8"?>
<!-- Generator: Adobe Illustrator 19.1.0, SVG Export Plug-In . SVG Version: 6.00 Build 0)  -->
<svg version="1.1" id="Capa_1" xmlns="http://www.w3.org/2000/svg" xmlns:xlink="http://www.w3.org/1999/xlink" x="0px" y="0px"
	 viewBox="-114 116 70 70" style="enable-background:new -114 116 70 70;" xml:space="preserve">
<style type="text/css">
	.st0{fill:#C3007A;}
	.st1{fill:#FFFFFF;}
</style>
<circle class="st0" cx="-79.2" cy="151.3" r="33.7"/>
<g>
	<path class="st1" d="M-79.3,135.1c-12.2,0-22.2,6.9-22.2,15.2c0,5.6,5.6,10.5,11.1,13.3c0,5.8-5.5,7.8-5.5,7.8
		c7.8,0,12.2-3.6,14.1-5.8h2.5c12.2,0,22.2-6.9,22.2-15.3C-57.1,142.1-67,135.1-79.3,135.1L-79.3,135.1z M-87.6,154.6
		c-1.7,0-2.8-1.1-2.8-2.8c0-1.7,1.1-2.8,2.8-2.8c1.7,0,2.8,1.1,2.8,2.8C-84.8,153.4-85.9,154.6-87.6,154.6L-87.6,154.6z
		 M-79.3,154.6c-1.7,0-2.8-1.1-2.8-2.8c0-1.7,1.1-2.8,2.8-2.8c1.7,0,2.8,1.1,2.8,2.8C-76.5,153.4-77.6,154.6-79.3,154.6L-79.3,154.6
		z M-70.9,154.6c-1.7,0-2.8-1.1-2.8-2.8c0-1.7,1.1-2.8,2.8-2.8c1.7,0,2.8,1.1,2.8,2.8C-68.1,153.4-69.3,154.6-70.9,154.6
		L-70.9,154.6z M-70.9,154.6"/>
</g>
</svg>
